HIERARCHY
ROOT Hips
{
    OFFSET 0.000000 0.000000 0.000000
    CHANNELS 6 Xposition Yposition Zposition Zrotation Xrotation Yrotation
        JOINT Spine1
        {
            OFFSET -0.000000 23.269398 0.000000
            CHANNELS 3 Zrotation Xrotation Yrotation
            JOINT Neck
            {
                OFFSET -0.000000 18.032967 0.000000
                CHANNELS 3 Zrotation Xrotation Yrotation
                JOINT Head
                {
                    OFFSET -0.000000 13.091072 1.689171
                    CHANNELS 3 Zrotation Xrotation Yrotation
                    End Site
                    {
                        OFFSET -0.000000 16.891708 0.000000
                    }
                }
            }
            JOINT LeftShoulder
            {
                OFFSET 3.336773 14.146137 -0.012206
                CHANNELS 3 Zrotation Xrotation Yrotation
                JOINT LeftArm
                {
                    OFFSET 11.765518 0.000000 0.000000
                    CHANNELS 3 Zrotation Xrotation Yrotation
                    JOINT LeftForeArm
                    {
                        OFFSET 25.163450 0.000000 0.000000
                        CHANNELS 3 Zrotation Xrotation Yrotation
                        JOINT LeftHand
                        {
                            OFFSET 21.783554 0.000000 0.000000
                            CHANNELS 3 Zrotation Xrotation Yrotation
                            End Site
                            {
                                OFFSET 12.668781 0.000000 0.000000
                            }
                        }
                    }
                }
            }
            JOINT RightShoulder
            {
                OFFSET -3.409204 14.146137 -0.012206
                CHANNELS 3 Zrotation Xrotation Yrotation
                JOINT RightArm
                {
                    OFFSET -11.765518 0.000000 0.000000
                    CHANNELS 3 Zrotation Xrotation Yrotation
                    JOINT RightForeArm
                    {
                        OFFSET -25.163450 0.000000 0.000000
                        CHANNELS 3 Zrotation Xrotation Yrotation
                        JOINT RightHand
                        {
                            OFFSET -21.783554 0.000000 0.000000
                            CHANNELS 3 Zrotation Xrotation Yrotation
                            End Site
                            {
                                OFFSET -12.668781 0.000000 0.000000
                            }
                        }
                    }
                }
            }
        }
        JOINT LeftUpLeg
    {
        OFFSET 8.445854 0.000000 0.000000
        CHANNELS 3 Zrotation Xrotation Yrotation
        JOINT LeftLeg
        {
            OFFSET -0.000000 -40.674755 0.000000
            CHANNELS 3 Zrotation Xrotation Yrotation
            JOINT LeftFoot
            {
                OFFSET -0.000000 -37.111794 0.000000
                CHANNELS 3 Zrotation Xrotation Yrotation
                JOINT LeftToeBase
                {
                    OFFSET -0.000000 -5.489805 12.668781
                    CHANNELS 3 Zrotation Xrotation Yrotation
                    End Site
                    {
                        OFFSET -0.000000 0.000000 3.378341
                    }
                }
            }
        }
    }
    JOINT RightUpLeg
    {
        OFFSET -8.445854 0.000000 0.000000
        CHANNELS 3 Zrotation Xrotation Yrotation
        JOINT RightLeg
        {
            OFFSET -0.000000 -40.674755 0.000000
            CHANNELS 3 Zrotation Xrotation Yrotation
            JOINT RightFoot
            {
                OFFSET -0.000000 -37.111794 0.000000
                CHANNELS 3 Zrotation Xrotation Yrotation
                JOINT RightToeBase
                {
                    OFFSET -0.000000 -5.489805 12.668781
                    CHANNELS 3 Zrotation Xrotation Yrotation
                    End Site
                    {
                        OFFSET -0.000000 0.000000 3.378341
                    }
                }
            }
        }
    }
}
MOTION
Frames:    6
Frame Time:    0.008333
2.882572    84.023636    103.755783    -1.565699    -0.506364    -155.868835    -3.616421    9.533468    12.034457    -0.148146    1.153790    -6.652075    7.620092    2.964183    -8.064889    -0.316236    9.647045    10.860677    -62.230145    18.907557    -13.969705    2.897286    -2.612287    -6.059914    5.601530    -2.726810    -5.476186    -1.903342    8.162849    -3.426106    48.187157    35.271320    35.871098    0.036342    -10.441333    34.017506    -9.253378    -10.888062    5.467041    -0.495564    -15.258910    -18.135679    -1.279704    16.695202    0.660018    -3.308671    -3.409024    19.193295    0.690884    1.445155    1.087273    -1.311324    5.915824    8.937140    -3.214590    30.797722    16.915323    1.452640    1.837646    14.042601    3.451586    -10.254210    12.839340    
2.466694    84.045334    103.316307    -1.784268    -0.349209    -156.841049    -3.832741    9.505697    11.984086    -0.094087    1.483498    -6.515107    7.762354    2.902364    -7.934072    -0.312558    9.696404    10.781685    -62.068142    19.307467    -14.364984    2.787239    -2.527070    -6.082766    6.087883    -2.671113    -5.494058    -1.829343    8.333447    -3.428689    48.599857    34.573635    35.451096    0.835200    -9.776750    33.169380    -9.869024    -10.464640    5.201106    -0.758149    -14.428057    -17.919855    -1.109119    16.590897    1.197029    -2.754113    -3.615056    19.475536    0.562466    1.339215    1.219434    -1.949743    5.163542    9.461963    -2.707878    32.474503    18.163288    2.397904    3.066371    13.116686    3.003158    -9.911098    13.594052    
2.001465    84.056587    102.843071    -1.893865    -0.166026    -157.449997    -3.786011    9.569084    11.479738    -0.013600    1.459253    -6.374807    7.602780    3.163839    -7.770058    -0.239685    9.710071    10.800197    -62.030048    19.812557    -14.785881    2.719771    -2.552824    -6.226224    6.287903    -2.713048    -5.610875    -1.746974    8.243671    -3.670159    48.404129    35.002319    35.349754    0.872597    -9.723592    32.429214    -10.178066    -10.402857    4.886859    -1.018612    -13.617987    -18.067461    -0.944670    16.484034    1.731433    -2.353130    -3.783214    19.712683    0.331584    1.062066    1.285335    -2.530535    4.281058    9.409236    -2.189558    34.117798    20.003746    3.482358    6.449310    12.609416    3.628293    -10.548167    13.080482    
1.542984    84.067154    102.376709    -2.057039    0.040778    -158.163391    -3.780895    9.621712    11.153862    0.046772    1.543441    -6.248174    7.516548    3.378996    -7.630964    -0.210014    9.712865    10.745734    -61.930904    20.271585    -15.283352    2.648245    -2.625985    -6.259264    6.138589    -2.781253    -5.596851    -1.820908    8.017004    -3.210136    49.093185    35.036606    34.069004    0.800713    -9.714645    31.956303    -10.382177    -10.350546    4.575123    -1.304656    -12.734462    -18.035500    -0.697880    16.327187    2.428682    -2.131068    -4.074752    19.691698    -1.131447    -0.752979    1.583749    -3.065483    3.538732    9.230477    -1.944090    36.046314    21.127977    4.493639    5.857672    12.496268    2.605187    -8.853184    11.831456    
1.088310    84.055588    101.937233    -2.124286    0.177869    -158.871292    -3.638602    9.558023    10.861787    0.027387    1.806708    -6.153433    7.418746    3.407526    -7.522419    -0.022073    8.998982    10.677027    -62.088940    21.237383    -15.244548    2.562135    -2.581457    -6.177258    6.429502    -2.764830    -5.727229    -1.913827    8.252659    -3.292800    49.239433    35.020912    33.762112    0.701393    -9.524776    31.203663    -10.426091    -10.114984    4.409758    -1.479827    -11.992603    -17.964840    -0.549018    16.182405    2.689599    -1.922165    -4.204981    20.013655    -1.248767    -0.931171    1.536229    -3.503266    2.468587    9.284715    -1.605817    38.118156    21.829268    4.924576    7.399049    12.411791    3.087738    -9.154466    10.787258    
0.646742    84.044350    101.489807    -2.215208    0.348334    -159.621750    -3.560167    9.501776    10.411597    -0.019410    1.995921    -5.962874    7.395082    3.558949    -7.338696    -0.084593    8.966965    10.653103    -61.996017    21.542171    -15.600239    2.507456    -2.502614    -6.355888    6.692254    -2.713986    -5.996495    -1.896093    8.359077    -3.314688    49.271084    35.096756    33.419083    0.803611    -9.422544    30.651499    -10.824612    -10.014660    4.008480    -1.724747    -11.238477    -17.259777    -0.120712    16.132896    2.528966    -1.781514    -4.476550    20.147486    -1.328686    -1.063344    1.479559    -3.964077    1.498889    9.496819    -1.245337    40.090820    22.210932    7.162541    7.178829    11.895530    2.213976    -7.854734    10.393909    
